<?xml version="1.0" encoding="UTF-8"?>
<!DOCTYPE svg PUBLIC "-//W3C//DTD SVG 1.1//EN" "http://www.w3.org/Graphics/SVG/1.1/DTD/svg11.dtd">
<svg xmlns="http://www.w3.org/2000/svg" version="1.1" width="793px" height="314px" style="shape-rendering:geometricPrecision; text-rendering:geometricPrecision; image-rendering:optimizeQuality; fill-rule:evenodd; clip-rule:evenodd" xmlns:xlink="http://www.w3.org/1999/xlink">
<g><path style="opacity:0.996" fill="#030303" d="M 64.5,8.5 C 65.812,16.0681 65.812,23.7347 64.5,31.5C 55.1667,31.5 45.8333,31.5 36.5,31.5C 36.5,84.5 36.5,137.5 36.5,190.5C 45.8333,190.5 55.1667,190.5 64.5,190.5C 65.7516,198.359 65.7516,206.359 64.5,214.5C 46.1667,214.5 27.8333,214.5 9.5,214.5C 9.5,145.833 9.5,77.1667 9.5,8.5C 27.8333,8.5 46.1667,8.5 64.5,8.5 Z"/></g>
<g><path style="opacity:0.993" fill="#070707" d="M 103.5,12.5 C 103.5,39.1667 103.5,65.8333 103.5,92.5C 139.329,93.4984 175.329,93.8318 211.5,93.5C 211.5,64.8333 211.5,36.1667 211.5,7.5C 220.5,6.16667 229.5,6.16667 238.5,7.5C 238.5,76.5 238.5,145.5 238.5,214.5C 229.5,214.5 220.5,214.5 211.5,214.5C 211.5,182.167 211.5,149.833 211.5,117.5C 189.167,117.5 166.833,117.5 144.5,117.5C 141.167,117.5 137.833,117.5 134.5,117.5C 123.833,117.5 113.167,117.5 102.5,117.5C 102.5,149.833 102.5,182.167 102.5,214.5C 93.8333,214.5 85.1667,214.5 76.5,214.5C 75.6981,213.048 75.1981,211.382 75,209.5C 74.8333,176.5 74.6667,143.5 74.5,110.5C 74.517,75.5286 74.8503,40.862 75.5,6.5C 84.5062,6.33356 93.5062,6.50023 102.5,7C 103.406,8.69946 103.739,10.5328 103.5,12.5 Z"/></g>
<g><path style="opacity:0.992" fill="#090909" d="M 118.5,10.5 C 120.515,11.9238 122.848,12.5905 125.5,12.5C 127.553,12.4021 129.22,13.0687 130.5,14.5C 131.78,15.9313 133.447,16.5979 135.5,16.5C 137.153,16.6596 138.486,17.3263 139.5,18.5C 140.035,20.4456 141.368,21.4456 143.5,21.5C 143.973,22.9063 144.973,23.573 146.5,23.5C 147.833,24.5 149.167,25.5 150.5,26.5C 152.094,29.7642 154.427,32.4309 157.5,34.5C 158.08,36.7488 159.413,38.4154 161.5,39.5C 161.427,41.0269 162.094,42.0269 163.5,42.5C 163.427,44.0269 164.094,45.0269 165.5,45.5C 165.427,47.0269 166.094,48.0269 167.5,48.5C 169.625,51.0878 170.958,54.0878 171.5,57.5C 172.393,62.5166 174.06,67.1832 176.5,71.5C 176.294,74.4951 176.96,77.1617 178.5,79.5C 178.5,79.8333 178.5,80.1667 178.5,80.5C 178.5,81.8333 178.5,83.1667 178.5,84.5C 169.167,84.5 159.833,84.5 150.5,84.5C 150.737,83.209 150.404,82.209 149.5,81.5C 147.387,72.1575 143.721,63.4909 138.5,55.5C 138.446,53.368 137.446,52.0347 135.5,51.5C 134.5,51.1667 133.833,50.5 133.5,49.5C 132.833,46.8333 131.167,45.1667 128.5,44.5C 127.5,44.1667 126.833,43.5 126.5,42.5C 126.027,41.0937 125.027,40.427 123.5,40.5C 120.085,38.7455 116.585,37.0789 113,35.5C 112.5,26.8397 112.334,18.1731 112.5,9.5C 114.735,9.20528 116.735,9.53862 118.5,10.5 Z"/></g>
<g><path style="opacity:0.024" fill="#a7a7a7" d="M 118.5,10.5 C 121.152,10.4095 123.485,11.0762 125.5,12.5C 122.848,12.5905 120.515,11.9238 118.5,10.5 Z"/></g>
<g><path style="opacity:0.591" fill="#434343" d="M 64.5,8.5 C 46.1667,8.5 27.8333,8.5 9.5,8.5C 9.5,77.1667 9.5,145.833 9.5,214.5C 27.8333,214.5 46.1667,214.5 64.5,214.5C 46.0075,215.497 27.3408,215.83 8.5,215.5C 8.33334,146.166 8.5,76.8325 9,7.5C 18.2584,6.83965 27.5918,6.50631 37,6.5C 46.5252,6.50166 55.6919,7.16832 64.5,8.5 Z"/></g>
<g><path style="opacity:0.195" fill="#686868" d="M 238.5,7.5 C 239.499,76.6647 239.833,145.998 239.5,215.5C 229.985,215.827 220.652,215.494 211.5,214.5C 220.5,214.5 229.5,214.5 238.5,214.5C 238.5,145.5 238.5,76.5 238.5,7.5 Z"/></g>
<g><path style="opacity:0.137" fill="#a1a1a1" d="M 130.5,14.5 C 132.553,14.4021 134.22,15.0687 135.5,16.5C 133.447,16.5979 131.78,15.9313 130.5,14.5 Z"/></g>
<g><path style="opacity:0.023" fill="#afafaf" d="M 103.5,12.5 C 104.498,38.6614 104.831,64.9947 104.5,91.5C 105.791,91.2627 106.791,91.596 107.5,92.5C 106.167,92.5 104.833,92.5 103.5,92.5C 103.5,65.8333 103.5,39.1667 103.5,12.5 Z"/></g>
<g><path style="opacity:0.537" fill="#7f7f7f" d="M 139.5,18.5 C 141.23,19.0256 142.564,20.0256 143.5,21.5C 141.368,21.4456 140.035,20.4456 139.5,18.5 Z"/></g>
<g><path style="opacity:0.012" fill="#b9b9b9" d="M 143.5,21.5 C 145.027,21.427 146.027,22.0937 146.5,23.5C 144.973,23.573 143.973,22.9063 143.5,21.5 Z"/></g>
<g><path style="opacity:0.192" fill="#a4a4a4" d="M 150.5,26.5 C 153.573,28.5691 155.906,31.2358 157.5,34.5C 154.427,32.4309 152.094,29.7642 150.5,26.5 Z"/></g>
<g><path style="opacity:0.121" fill="#9b9b9b" d="M 64.5,31.5 C 55.6822,32.4933 46.6822,32.8266 37.5,32.5C 37.5,84.8333 37.5,137.167 37.5,189.5C 46.6822,189.173 55.6822,189.507 64.5,190.5C 55.1667,190.5 45.8333,190.5 36.5,190.5C 36.5,137.5 36.5,84.5 36.5,31.5C 45.8333,31.5 55.1667,31.5 64.5,31.5 Z"/></g>
<g><path style="opacity:0.184" fill="#818181" d="M 157.5,34.5 C 159.587,35.5846 160.92,37.2512 161.5,39.5C 159.413,38.4154 158.08,36.7488 157.5,34.5 Z"/></g>
<g><path style="opacity:0.161" fill="#737373" d="M 123.5,40.5 C 125.027,40.427 126.027,41.0937 126.5,42.5C 124.973,42.573 123.973,41.9063 123.5,40.5 Z"/></g>
<g><path style="opacity:0.216" fill="#777777" d="M 161.5,39.5 C 162.906,39.9731 163.573,40.9731 163.5,42.5C 162.094,42.0269 161.427,41.0269 161.5,39.5 Z"/></g>
<g><path style="opacity:0.314" fill="#7d7d7d" d="M 128.5,44.5 C 131.167,45.1667 132.833,46.8333 133.5,49.5C 131.5,48.1667 129.833,46.5 128.5,44.5 Z"/></g>
<g><path style="opacity:0.192" fill="#7c7c7c" d="M 163.5,42.5 C 164.906,42.9731 165.573,43.9731 165.5,45.5C 164.094,45.0269 163.427,44.0269 163.5,42.5 Z"/></g>
<g><path style="opacity:0.129" fill="#969696" d="M 165.5,45.5 C 166.906,45.9731 167.573,46.9731 167.5,48.5C 166.094,48.0269 165.427,47.0269 165.5,45.5 Z"/></g>
<g><path style="opacity:0.204" fill="#717171" d="M 135.5,51.5 C 137.446,52.0347 138.446,53.368 138.5,55.5C 137.026,54.5637 136.026,53.2303 135.5,51.5 Z"/></g>
<g><path style="opacity:0.757" fill="#636363" d="M 171.5,57.5 C 174.25,61.6896 175.917,66.3563 176.5,71.5C 174.06,67.1832 172.393,62.5166 171.5,57.5 Z"/></g>
<g><path style="opacity:0.989" fill="#101010" d="M 450.5,211.5 C 450.665,207.818 450.499,204.152 450,200.5C 448.961,201.244 448.461,202.244 448.5,203.5C 445.231,208.766 440.564,212.099 434.5,213.5C 427.515,214.089 420.515,214.422 413.5,214.5C 406.883,213.69 401.216,211.023 396.5,206.5C 396.027,205.094 395.027,204.427 393.5,204.5C 386.128,197.772 381.295,189.439 379,179.5C 376.845,167.312 377.012,155.312 379.5,143.5C 380.924,141.485 381.59,139.152 381.5,136.5C 382.264,133.982 383.264,131.649 384.5,129.5C 385.906,129.027 386.573,128.027 386.5,126.5C 387.906,126.027 388.573,125.027 388.5,123.5C 390.5,122.167 392.167,120.5 393.5,118.5C 394.585,116.413 396.251,115.08 398.5,114.5C 400.027,114.573 401.027,113.906 401.5,112.5C 414.488,105.677 427.488,105.843 440.5,113C 443.331,114.666 445.664,116.832 447.5,119.5C 447.783,120.289 448.283,120.956 449,121.5C 449.5,104.837 449.667,88.17 449.5,71.5C 454.65,70.3493 459.984,70.1826 465.5,71C 466,71.5 466.5,72 467,72.5C 467.667,119.167 467.667,165.833 467,212.5C 464.254,213.143 461.421,213.476 458.5,213.5C 455.41,213.478 452.743,212.812 450.5,211.5 Z M 430.5,124.5 C 441.511,129.167 447.678,137.5 449,149.5C 449.704,159.856 449.537,170.189 448.5,180.5C 446.935,182.509 445.935,184.843 445.5,187.5C 444.094,187.973 443.427,188.973 443.5,190.5C 437.15,197.672 429.15,201.005 419.5,200.5C 417.786,199.262 415.786,198.595 413.5,198.5C 409.903,196.244 406.569,193.577 403.5,190.5C 403.573,188.973 402.906,187.973 401.5,187.5C 401.34,185.847 400.674,184.514 399.5,183.5C 399.405,181.214 398.738,179.214 397.5,177.5C 397.702,175.05 397.369,172.717 396.5,170.5C 395.875,159.974 396.875,149.641 399.5,139.5C 402.806,132.861 407.806,127.861 414.5,124.5C 419.833,123.167 425.167,123.167 430.5,124.5 Z"/></g>
<g><path style="opacity:0.99" fill="#1c1c1c" d="M 675.5,71.5 C 675.5,78.1667 675.5,84.8333 675.5,91.5C 670.35,92.6507 665.016,92.8174 659.5,92C 659,91.5 658.5,91 658,90.5C 657.19,83.9184 657.357,77.4184 658.5,71C 664.349,70.1816 670.015,70.3483 675.5,71.5 Z"/></g>
<g><path style="opacity:0.122" fill="#c3c3c3" d="M 449.5,71.5 C 449.667,88.17 449.5,104.837 449,121.5C 448.283,120.956 447.783,120.289 447.5,119.5C 448.167,103.5 448.833,87.5 449.5,71.5 Z"/></g>
<g><path style="opacity:0.184" fill="#818181" d="M 176.5,71.5 C 177.768,73.9052 178.435,76.5718 178.5,79.5C 176.96,77.1617 176.294,74.4951 176.5,71.5 Z"/></g>
<g><path style="opacity:0.232" fill="#6c6c6c" d="M 675.5,71.5 C 677.778,78.1375 677.778,84.8042 675.5,91.5C 675.5,84.8333 675.5,78.1667 675.5,71.5 Z"/></g>
<g><path style="opacity:0.387" fill="#414141" d="M 178.5,80.5 C 179.451,81.9187 179.784,83.5853 179.5,85.5C 169.5,85.5 159.5,85.5 149.5,85.5C 149.5,84.1667 149.5,82.8333 149.5,81.5C 150.404,82.209 150.737,83.209 150.5,84.5C 159.833,84.5 169.167,84.5 178.5,84.5C 178.5,83.1667 178.5,81.8333 178.5,80.5 Z"/></g>
<g><path style="opacity:0.422" fill="#626262" d="M 211.5,7.5 C 211.5,36.1667 211.5,64.8333 211.5,93.5C 175.329,93.8318 139.329,93.4984 103.5,92.5C 104.833,92.5 106.167,92.5 107.5,92.5C 141.834,91.2199 176.167,91.2199 210.5,92.5C 210.169,63.9951 210.502,35.6618 211.5,7.5 Z"/></g>
<g><path style="opacity:0.986" fill="#0d0d0d" d="M 351.5,119.5 C 351.427,121.027 352.094,122.027 353.5,122.5C 353.415,125.649 354.415,128.316 356.5,130.5C 356.333,149.17 356.5,167.836 357,186.5C 357.175,191.019 357.675,195.353 358.5,199.5C 359.664,203.011 360.664,206.677 361.5,210.5C 356.265,212.45 350.598,213.117 344.5,212.5C 343.069,211.22 342.402,209.553 342.5,207.5C 342.868,204.944 342.034,202.944 340,201.5C 338.699,201.639 337.866,202.305 337.5,203.5C 330.831,209.831 322.831,213.498 313.5,214.5C 306.5,214.5 299.5,214.5 292.5,214.5C 274.133,210.42 266.133,199.086 268.5,180.5C 269.924,178.485 270.59,176.152 270.5,173.5C 270.932,172.29 271.599,171.29 272.5,170.5C 273.906,170.027 274.573,169.027 274.5,167.5C 276.637,164.027 279.637,161.694 283.5,160.5C 285.027,160.573 286.027,159.906 286.5,158.5C 287.391,157.89 288.391,157.557 289.5,157.5C 292.152,157.59 294.485,156.924 296.5,155.5C 303.355,153.767 310.355,152.767 317.5,152.5C 321.79,152.802 325.79,152.136 329.5,150.5C 332.495,150.706 335.162,150.04 337.5,148.5C 338.794,146.952 339.461,144.952 339.5,142.5C 339.495,140.304 339.162,138.304 338.5,136.5C 337.828,133.657 336.495,131.157 334.5,129C 330.965,126.233 326.965,124.566 322.5,124C 313.319,122.517 304.652,123.85 296.5,128C 294.93,129.397 293.596,130.897 292.5,132.5C 290.166,134.176 289.166,136.509 289.5,139.5C 289.315,141.89 287.982,142.89 285.5,142.5C 280.25,142.113 275.25,140.946 270.5,139C 271.795,134.785 273.295,130.618 275,126.5C 276.049,124.382 277.549,122.716 279.5,121.5C 280.833,120.833 281.833,119.833 282.5,118.5C 283.992,115.677 286.326,114.01 289.5,113.5C 294.032,112.543 298.365,111.21 302.5,109.5C 315.932,106.406 329.265,107.239 342.5,112C 346.275,113.611 349.275,116.111 351.5,119.5 Z M 334.5,163.5 C 335.833,163.5 337.167,163.5 338.5,163.5C 338.5,167.833 338.5,172.167 338.5,176.5C 338.5,177.167 338.5,177.833 338.5,178.5C 337.542,180.302 336.875,182.302 336.5,184.5C 336.5,184.833 336.5,185.167 336.5,185.5C 335.094,185.973 334.427,186.973 334.5,188.5C 333.094,188.973 332.427,189.973 332.5,191.5C 331.833,191.5 331.5,191.833 331.5,192.5C 329.596,192.738 328.262,193.738 327.5,195.5C 325.973,195.427 324.973,196.094 324.5,197.5C 316.411,200.34 308.077,201.174 299.5,200C 293.533,198.549 289.533,195.049 287.5,189.5C 287.19,185.3 287.857,181.3 289.5,177.5C 291.167,176.5 292.5,175.167 293.5,173.5C 298.762,171.323 304.095,169.657 309.5,168.5C 313.764,168.656 317.764,167.989 321.5,166.5C 326.12,166.26 330.453,165.26 334.5,163.5 Z"/></g>
<g><path style="opacity:0.989" fill="#0e0e0e" d="M 566.5,119.5 C 566.427,121.027 567.094,122.027 568.5,122.5C 568.281,123.675 568.614,124.675 569.5,125.5C 571.611,124.395 572.945,122.729 573.5,120.5C 573.833,119.5 574.5,118.833 575.5,118.5C 577.749,117.92 579.415,116.587 580.5,114.5C 582.027,114.573 583.027,113.906 583.5,112.5C 596.113,105.764 608.779,105.931 621.5,113C 625.175,115.828 627.842,119.328 629.5,123.5C 629.69,126.855 630.69,129.855 632.5,132.5C 633.657,159.095 633.824,185.761 633,212.5C 627.259,213.475 621.425,213.808 615.5,213.5C 614.6,187.846 614.266,162.18 614.5,136.5C 614.88,134.302 614.213,132.635 612.5,131.5C 611.512,130.205 610.512,128.872 609.5,127.5C 608.313,125.025 606.313,124.025 603.5,124.5C 591.393,122.564 582.06,126.564 575.5,136.5C 573.126,139.686 572.126,143.353 572.5,147.5C 571.503,168.994 571.169,190.66 571.5,212.5C 566.167,212.5 560.833,212.5 555.5,212.5C 555.831,189.661 555.497,166.994 554.5,144.5C 554.008,128.19 545.675,121.69 529.5,125C 521.65,127.685 516.316,132.852 513.5,140.5C 512.732,141.263 512.232,142.263 512,143.5C 511.5,150.158 511.334,156.825 511.5,163.5C 511.5,180.167 511.5,196.833 511.5,213.5C 505.575,213.808 499.741,213.475 494,212.5C 493.333,178.5 493.333,144.5 494,110.5C 498.748,109.365 503.581,109.198 508.5,110C 509.056,110.383 509.389,110.883 509.5,111.5C 509.334,115.514 509.501,119.514 510,123.5C 511.376,122.295 512.542,120.962 513.5,119.5C 520.584,111.463 529.584,107.463 540.5,107.5C 551.258,107.215 559.925,111.215 566.5,119.5 Z"/></g>
<g><path style="opacity:0.983" fill="#111111" d="M 777.5,117.5 C 777.427,119.027 778.094,120.027 779.5,120.5C 781.25,121.659 782.25,123.326 782.5,125.5C 783.638,130.091 784.471,134.757 785,139.5C 785.5,163.831 785.667,188.164 785.5,212.5C 779.766,213.825 773.932,213.825 768,212.5C 767.667,188.5 767.333,164.5 767,140.5C 766.172,132.669 762.005,127.502 754.5,125C 744.509,122.921 735.509,124.921 727.5,131C 725.942,133.052 724.608,135.219 723.5,137.5C 722.883,137.611 722.383,137.944 722,138.5C 721.333,141.167 720.667,143.833 720,146.5C 719.5,168.497 719.333,190.497 719.5,212.5C 716.854,213.164 714.021,213.498 711,213.5C 707.724,213.442 704.724,212.776 702,211.5C 701.333,177.833 701.333,144.167 702,110.5C 706.748,109.365 711.581,109.198 716.5,110C 717.973,110.71 718.64,111.876 718.5,113.5C 718.335,116.85 718.502,120.183 719,123.5C 720.376,122.295 721.542,120.962 722.5,119.5C 722.833,118.5 723.5,117.833 724.5,117.5C 726.749,116.92 728.415,115.587 729.5,113.5C 741.944,106.509 754.944,105.675 768.5,111C 771.921,112.699 774.921,114.865 777.5,117.5 Z"/></g>
<g><path style="opacity:0.31" fill="#727272" d="M 302.5,109.5 C 298.365,111.21 294.032,112.543 289.5,113.5C 293.378,110.987 297.711,109.654 302.5,109.5 Z"/></g>
<g><path style="opacity:0.99" fill="#161616" d="M 658.5,109.5 C 664.229,109.212 669.896,109.546 675.5,110.5C 676.829,144.733 676.829,178.9 675.5,213C 672.667,213.167 669.833,213.333 667,213.5C 663.724,213.442 660.724,212.776 658,211.5C 657.174,177.429 657.341,143.429 658.5,109.5 Z"/></g>
<g><path style="opacity:0.247" fill="#8d8d8d" d="M 401.5,112.5 C 401.027,113.906 400.027,114.573 398.5,114.5C 398.973,113.094 399.973,112.427 401.5,112.5 Z"/></g>
<g><path style="opacity:0.345" fill="#737373" d="M 583.5,112.5 C 583.027,113.906 582.027,114.573 580.5,114.5C 580.973,113.094 581.973,112.427 583.5,112.5 Z"/></g>
<g><path style="opacity:0.057" fill="#adadad" d="M 718.5,113.5 C 719.314,115.631 719.814,117.964 720,120.5C 720.671,119.748 721.504,119.414 722.5,119.5C 721.542,120.962 720.376,122.295 719,123.5C 718.502,120.183 718.335,116.85 718.5,113.5 Z"/></g>
<g><path style="opacity:0.663" fill="#535353" d="M 729.5,113.5 C 728.415,115.587 726.749,116.92 724.5,117.5C 725.585,115.413 727.251,114.08 729.5,113.5 Z"/></g>
<g><path style="opacity:0.12" fill="#a5a5a5" d="M 509.5,111.5 C 510.319,114.305 510.819,117.305 511,120.5C 511.671,119.748 512.504,119.414 513.5,119.5C 512.542,120.962 511.376,122.295 510,123.5C 509.501,119.514 509.334,115.514 509.5,111.5 Z"/></g>
<g><path style="opacity:0.553" fill="#676767" d="M 580.5,114.5 C 579.415,116.587 577.749,117.92 575.5,118.5C 576.585,116.413 578.251,115.08 580.5,114.5 Z"/></g>
<g><path style="opacity:0.276" fill="#5f5f5f" d="M 134.5,117.5 C 124.347,118.494 114.014,118.828 103.5,118.5C 104.807,150.875 104.807,183.208 103.5,215.5C 94.3178,215.827 85.3178,215.493 76.5,214.5C 85.1667,214.5 93.8333,214.5 102.5,214.5C 102.5,182.167 102.5,149.833 102.5,117.5C 113.167,117.5 123.833,117.5 134.5,117.5 Z"/></g>
<g><path style="opacity:0.212" fill="#7a7a7a" d="M 777.5,117.5 C 778.906,117.973 779.573,118.973 779.5,120.5C 778.094,120.027 777.427,119.027 777.5,117.5 Z"/></g>
<g><path style="opacity:0.188" fill="#808080" d="M 282.5,118.5 C 281.833,119.833 280.833,120.833 279.5,121.5C 279.5,119.5 280.5,118.5 282.5,118.5 Z"/></g>
<g><path style="opacity:0.173" fill="#8e8e8e" d="M 351.5,119.5 C 352.906,119.973 353.573,120.973 353.5,122.5C 352.094,122.027 351.427,121.027 351.5,119.5 Z"/></g>
<g><path style="opacity:0.137" fill="#afafaf" d="M 393.5,118.5 C 392.167,120.5 390.5,122.167 388.5,123.5C 389.167,120.833 390.833,119.167 393.5,118.5 Z"/></g>
<g><path style="opacity:0.118" fill="#a4a4a4" d="M 566.5,119.5 C 567.906,119.973 568.573,120.973 568.5,122.5C 567.094,122.027 566.427,121.027 566.5,119.5 Z"/></g>
<g><path style="opacity:0.116" fill="#7f7f7f" d="M 430.5,124.5 C 425.167,123.167 419.833,123.167 414.5,124.5C 416.807,122.953 419.473,122.287 422.5,122.5C 425.527,122.287 428.193,122.953 430.5,124.5 Z"/></g>
<g><path style="opacity:0.137" fill="#9d9d9d" d="M 144.5,117.5 C 166.833,117.5 189.167,117.5 211.5,117.5C 211.5,149.833 211.5,182.167 211.5,214.5C 210.502,182.671 210.168,150.671 210.5,118.5C 188.327,118.831 166.327,118.497 144.5,117.5 Z"/></g>
<g><path style="opacity:0.22" fill="#949494" d="M 573.5,120.5 C 572.945,122.729 571.611,124.395 569.5,125.5C 568.614,124.675 568.281,123.675 568.5,122.5C 569.117,122.611 569.617,122.944 570,123.5C 571.039,122.29 572.206,121.29 573.5,120.5 Z"/></g>
<g><path style="opacity:0.573" fill="#525252" d="M 603.5,124.5 C 606.313,124.025 608.313,125.025 609.5,127.5C 607.456,126.492 605.456,125.492 603.5,124.5 Z"/></g>
<g><path style="opacity:0.989" fill="#0a0a0a" d="M 179.5,125.5 C 179.084,130.493 178.751,135.493 178.5,140.5C 176.053,147.273 174.053,154.273 172.5,161.5C 172.672,162.492 172.338,163.158 171.5,163.5C 169.408,166.088 168.075,169.088 167.5,172.5C 167.672,173.492 167.338,174.158 166.5,174.5C 164.75,175.659 163.75,177.326 163.5,179.5C 162.094,179.973 161.427,180.973 161.5,182.5C 161.5,183.167 161.167,183.5 160.5,183.5C 159.094,183.973 158.427,184.973 158.5,186.5C 157.5,188.167 156.167,189.5 154.5,190.5C 152.833,191.5 151.5,192.833 150.5,194.5C 149.5,196.167 148.167,197.5 146.5,198.5C 144.973,198.427 143.973,199.094 143.5,200.5C 141.973,200.427 140.973,201.094 140.5,202.5C 140.158,203.338 139.492,203.672 138.5,203.5C 136.973,203.427 135.973,204.094 135.5,205.5C 129.949,208.597 123.949,210.597 117.5,211.5C 116.167,211.5 114.833,211.5 113.5,211.5C 113.5,203.5 113.5,195.5 113.5,187.5C 117.833,184.331 122.5,181.664 127.5,179.5C 130.833,178.167 133.167,175.833 134.5,172.5C 144.445,158.504 149.945,142.837 151,125.5C 160.598,124.172 170.098,124.172 179.5,125.5 Z"/></g>
<g><path style="opacity:0.753" fill="#555555" d="M 353.5,122.5 C 355.585,124.684 356.585,127.351 356.5,130.5C 354.415,128.316 353.415,125.649 353.5,122.5 Z"/></g>
<g><path style="opacity:0.145" fill="#949494" d="M 388.5,123.5 C 388.573,125.027 387.906,126.027 386.5,126.5C 386.427,124.973 387.094,123.973 388.5,123.5 Z"/></g>
<g><path style="opacity:0.125" fill="#9e9e9e" d="M 386.5,126.5 C 386.573,128.027 385.906,129.027 384.5,129.5C 384.427,127.973 385.094,126.973 386.5,126.5 Z"/></g>
<g><path style="opacity:0.322" fill="#656565" d="M 629.5,123.5 C 631.472,126.084 632.472,129.084 632.5,132.5C 630.69,129.855 629.69,126.855 629.5,123.5 Z"/></g>
<g><path style="opacity:0.584" fill="#636363" d="M 782.5,125.5 C 784.718,129.434 785.885,133.768 786,138.5C 786.83,163.337 786.663,188.003 785.5,212.5C 785.667,188.164 785.5,163.831 785,139.5C 784.471,134.757 783.638,130.091 782.5,125.5 Z"/></g>
<g><path style="opacity:0.059" fill="#848484" d="M 179.5,125.5 C 180.579,130.552 180.246,135.552 178.5,140.5C 178.751,135.493 179.084,130.493 179.5,125.5 Z"/></g>
<g><path style="opacity:0.157" fill="#868686" d="M 612.5,131.5 C 614.213,132.635 614.88,134.302 614.5,136.5C 613.463,135.07 612.796,133.403 612.5,131.5 Z"/></g>
<g><path style="opacity:0.129" fill="#838383" d="M 292.5,132.5 C 291.736,135.018 290.736,137.351 289.5,139.5C 289.166,136.509 290.166,134.176 292.5,132.5 Z"/></g>
<g><path style="opacity:0.18" fill="#8d8d8d" d="M 381.5,136.5 C 381.59,139.152 380.924,141.485 379.5,143.5C 379.41,140.848 380.076,138.515 381.5,136.5 Z"/></g>
<g><path style="opacity:0.047" fill="#7f7f7f" d="M 178.5,140.5 C 177.686,147.931 175.686,154.931 172.5,161.5C 174.053,154.273 176.053,147.273 178.5,140.5 Z"/></g>
<g><path style="opacity:0.018" fill="#c0c0c0" d="M 338.5,136.5 C 339.162,138.304 339.495,140.304 339.5,142.5C 339.461,144.952 338.794,146.952 337.5,148.5C 338.43,144.6 338.763,140.6 338.5,136.5 Z"/></g>
<g><path style="opacity:0.459" fill="#646464" d="M 337.5,148.5 C 335.162,150.04 332.495,150.706 329.5,150.5C 331.905,149.232 334.572,148.565 337.5,148.5 Z"/></g>
<g><path style="opacity:0.537" fill="#727272" d="M 329.5,150.5 C 325.79,152.136 321.79,152.802 317.5,152.5C 321.267,151.205 325.267,150.539 329.5,150.5 Z"/></g>
<g><path style="opacity:0.304" fill="#474747" d="M 572.5,147.5 C 572.5,164.5 572.5,181.5 572.5,198.5C 573.352,203.539 573.352,208.539 572.5,213.5C 566.31,213.823 560.31,213.49 554.5,212.5C 554.833,212.5 555.167,212.5 555.5,212.5C 560.833,212.5 566.167,212.5 571.5,212.5C 571.169,190.66 571.503,168.994 572.5,147.5 Z"/></g>
<g><path style="opacity:0.031" fill="#8e8e8e" d="M 513.5,140.5 C 513.014,148.328 512.347,155.994 511.5,163.5C 511.334,156.825 511.5,150.158 512,143.5C 512.232,142.263 512.732,141.263 513.5,140.5 Z"/></g>
<g><path style="opacity:0.102" fill="#717171" d="M 399.5,139.5 C 396.875,149.641 395.875,159.974 396.5,170.5C 395.345,163.345 395.178,156.012 396,148.5C 396.505,145.135 397.672,142.135 399.5,139.5 Z"/></g>
<g><path style="opacity:0.408" fill="#6d6d6d" d="M 296.5,155.5 C 294.485,156.924 292.152,157.59 289.5,157.5C 291.515,156.076 293.848,155.41 296.5,155.5 Z"/></g>
<g><path style="opacity:0.325" fill="#797979" d="M 286.5,158.5 C 286.027,159.906 285.027,160.573 283.5,160.5C 283.973,159.094 284.973,158.427 286.5,158.5 Z"/></g>
<g><path style="opacity:0.011" fill="#b0b0b0" d="M 575.5,136.5 C 575.313,138.564 574.813,140.564 574,142.5C 573.832,161.338 573.332,180.004 572.5,198.5C 572.5,181.5 572.5,164.5 572.5,147.5C 572.126,143.353 573.126,139.686 575.5,136.5 Z"/></g>
<g><path style="opacity:0.145" fill="#7e7e7e" d="M 171.5,163.5 C 170.941,166.943 169.607,169.943 167.5,172.5C 168.075,169.088 169.408,166.088 171.5,163.5 Z"/></g>
<g><path style="opacity:0.098" fill="#6d6d6d" d="M 321.5,166.5 C 317.764,167.989 313.764,168.656 309.5,168.5C 313.267,167.205 317.267,166.539 321.5,166.5 Z"/></g>
<g><path style="opacity:0.134" fill="#777777" d="M 723.5,137.5 C 722.355,141.416 721.522,145.416 721,149.5C 720.832,170.671 720.332,191.671 719.5,212.5C 719.333,190.497 719.5,168.497 720,146.5C 720.667,143.833 721.333,141.167 722,138.5C 722.383,137.944 722.883,137.611 723.5,137.5 Z"/></g>
<g><path style="opacity:0.084" fill="#ababab" d="M 338.5,176.5 C 338.5,172.167 338.5,167.833 338.5,163.5C 337.167,163.5 335.833,163.5 334.5,163.5C 335.641,162.661 336.974,161.994 338.5,161.5C 339.814,166.652 339.814,171.652 338.5,176.5 Z"/></g>
<g><path style="opacity:0.137" fill="#7f7f7f" d="M 274.5,167.5 C 274.573,169.027 273.906,170.027 272.5,170.5C 272.427,168.973 273.094,167.973 274.5,167.5 Z"/></g>
<g><path style="opacity:0.008" fill="#8c8c8c" d="M 293.5,173.5 C 292.5,175.167 291.167,176.5 289.5,177.5C 289.833,175.167 291.167,173.833 293.5,173.5 Z"/></g>
<g><path style="opacity:0.122" fill="#868686" d="M 166.5,174.5 C 166.25,176.674 165.25,178.341 163.5,179.5C 163.75,177.326 164.75,175.659 166.5,174.5 Z"/></g>
<g><path style="opacity:0.416" fill="#666666" d="M 270.5,173.5 C 270.59,176.152 269.924,178.485 268.5,180.5C 268.41,177.848 269.076,175.515 270.5,173.5 Z"/></g>
<g><path style="opacity:0.396" fill="#555555" d="M 134.5,172.5 C 133.167,175.833 130.833,178.167 127.5,179.5C 129.5,176.833 131.833,174.5 134.5,172.5 Z"/></g>
<g><path style="opacity:0.024" fill="#919191" d="M 163.5,179.5 C 163.573,181.027 162.906,182.027 161.5,182.5C 161.427,180.973 162.094,179.973 163.5,179.5 Z"/></g>
<g><path style="opacity:0.694" fill="#5c5c5c" d="M 397.5,177.5 C 398.738,179.214 399.405,181.214 399.5,183.5C 397.72,182.01 397.054,180.01 397.5,177.5 Z"/></g>
<g><path style="opacity:0.522" fill="#727272" d="M 338.5,178.5 C 338.946,181.01 338.28,183.01 336.5,184.5C 336.875,182.302 337.542,180.302 338.5,178.5 Z"/></g>
<g><path style="opacity:0.125" fill="#757575" d="M 289.5,177.5 C 287.857,181.3 287.19,185.3 287.5,189.5C 286.362,186.696 286.195,183.696 287,180.5C 287.377,179.058 288.21,178.058 289.5,177.5 Z"/></g>
<g><path style="opacity:0.62" fill="#616161" d="M 448.5,180.5 C 448.834,183.491 447.834,185.824 445.5,187.5C 445.935,184.843 446.935,182.509 448.5,180.5 Z"/></g>
<g><path style="opacity:0.016" fill="#8f8f8f" d="M 160.5,183.5 C 160.573,185.027 159.906,186.027 158.5,186.5C 158.427,184.973 159.094,183.973 160.5,183.5 Z"/></g>
<g><path style="opacity:0.141" fill="#858585" d="M 113.5,187.5 C 113.5,195.5 113.5,203.5 113.5,211.5C 114.833,211.5 116.167,211.5 117.5,211.5C 116.081,212.451 114.415,212.784 112.5,212.5C 112.174,203.983 112.507,195.65 113.5,187.5 Z"/></g>
<g><path style="opacity:0.137" fill="#8d8d8d" d="M 336.5,185.5 C 336.573,187.027 335.906,188.027 334.5,188.5C 334.427,186.973 335.094,185.973 336.5,185.5 Z"/></g>
<g><path style="opacity:0.076" fill="#888888" d="M 356.5,130.5 C 357.59,137.477 358.257,144.643 358.5,152C 357.948,167.818 357.948,183.651 358.5,199.5C 357.675,195.353 357.175,191.019 357,186.5C 356.5,167.836 356.333,149.17 356.5,130.5 Z"/></g>
<g><path style="opacity:0.275" fill="#808080" d="M 334.5,188.5 C 334.573,190.027 333.906,191.027 332.5,191.5C 332.427,189.973 333.094,188.973 334.5,188.5 Z"/></g>
<g><path style="opacity:0.18" fill="#818181" d="M 401.5,187.5 C 402.906,187.973 403.573,188.973 403.5,190.5C 402.094,190.027 401.427,189.027 401.5,187.5 Z"/></g>
<g><path style="opacity:0.141" fill="#8a8a8a" d="M 445.5,187.5 C 445.573,189.027 444.906,190.027 443.5,190.5C 443.427,188.973 444.094,187.973 445.5,187.5 Z"/></g>
<g><path style="opacity:0.016" fill="#8a8a8a" d="M 154.5,190.5 C 154.167,192.833 152.833,194.167 150.5,194.5C 151.5,192.833 152.833,191.5 154.5,190.5 Z"/></g>
<g><path style="opacity:0.586" fill="#5d5d5d" d="M 554.5,144.5 C 555.497,166.994 555.831,189.661 555.5,212.5C 555.167,212.5 554.833,212.5 554.5,212.5C 553.298,189.771 553.298,167.104 554.5,144.5 Z"/></g>
<g><path style="opacity:0.231" fill="#787878" d="M 331.5,192.5 C 330.738,194.262 329.404,195.262 327.5,195.5C 328.262,193.738 329.596,192.738 331.5,192.5 Z"/></g>
<g><path style="opacity:0.278" fill="#7d7d7d" d="M 327.5,195.5 C 327.027,196.906 326.027,197.573 324.5,197.5C 324.973,196.094 325.973,195.427 327.5,195.5 Z"/></g>
<g><path style="opacity:0.008" fill="#959595" d="M 146.5,198.5 C 146.027,199.906 145.027,200.573 143.5,200.5C 143.973,199.094 144.973,198.427 146.5,198.5 Z"/></g>
<g><path style="opacity:0.137" fill="#999999" d="M 413.5,198.5 C 415.786,198.595 417.786,199.262 419.5,200.5C 417.102,200.741 415.102,200.074 413.5,198.5 Z"/></g>
<g><path style="opacity:0.047" fill="#888888" d="M 143.5,200.5 C 143.027,201.906 142.027,202.573 140.5,202.5C 140.973,201.094 141.973,200.427 143.5,200.5 Z"/></g>
<g><path style="opacity:0.012" fill="#909090" d="M 138.5,203.5 C 138.027,204.906 137.027,205.573 135.5,205.5C 135.973,204.094 136.973,203.427 138.5,203.5 Z"/></g>
<g><path style="opacity:0.38" fill="#666666" d="M 342.5,207.5 C 341.59,205.981 340.757,204.315 340,202.5C 339.329,203.252 338.496,203.586 337.5,203.5C 337.866,202.305 338.699,201.639 340,201.5C 342.034,202.944 342.868,204.944 342.5,207.5 Z"/></g>
<g><path style="opacity:0.251" fill="#797979" d="M 393.5,204.5 C 395.027,204.427 396.027,205.094 396.5,206.5C 394.973,206.573 393.973,205.906 393.5,204.5 Z"/></g>
<g><path style="opacity:0.075" fill="#a4a4a4" d="M 450.5,211.5 C 449.833,208.833 449.167,206.167 448.5,203.5C 448.461,202.244 448.961,201.244 450,200.5C 450.499,204.152 450.665,207.818 450.5,211.5 Z"/></g>
<g><path style="opacity:0.132" fill="#626262" d="M 361.5,210.5 C 362.404,211.209 362.737,212.209 362.5,213.5C 356.31,213.823 350.31,213.49 344.5,212.5C 350.598,213.117 356.265,212.45 361.5,210.5 Z"/></g>
<g><path style="opacity:0.298" fill="#666666" d="M 292.5,214.5 C 299.5,214.5 306.5,214.5 313.5,214.5C 310.177,215.362 306.677,216.028 303,216.5C 299.323,216.028 295.823,215.362 292.5,214.5 Z"/></g>
<g><path style="opacity:0.299" fill="#4e4e4e" d="M 434.5,213.5 C 430.609,215.007 426.442,215.674 422,215.5C 418.979,215.498 416.146,215.164 413.5,214.5C 420.515,214.422 427.515,214.089 434.5,213.5 Z"/></g>
</svg>
