<?xml version="1.0" encoding="UTF-8"?>
<!DOCTYPE svg PUBLIC "-//W3C//DTD SVG 1.1//EN" "http://www.w3.org/Graphics/SVG/1.1/DTD/svg11.dtd">
<svg xmlns="http://www.w3.org/2000/svg" version="1.1" width="765px" height="326px" style="shape-rendering:geometricPrecision; text-rendering:geometricPrecision; image-rendering:optimizeQuality; fill-rule:evenodd; clip-rule:evenodd" xmlns:xlink="http://www.w3.org/1999/xlink">
<g><path style="opacity:0.994" fill="#0d0d0d" d="M 61.5,28.5 C 51.1667,28.5 40.8333,28.5 30.5,28.5C 30.5,86.8333 30.5,145.167 30.5,203.5C 31.5,203.5 32.5,203.5 33.5,203.5C 43.1724,203.334 52.8391,203.5 62.5,204C 63.8148,210.5 63.8148,217 62.5,223.5C 44.1667,223.5 25.8333,223.5 7.5,223.5C 6.3345,152.001 6.16783,80.3345 7,8.5C 25.4265,7.34132 43.9265,7.17465 62.5,8C 63.642,14.0844 63.8087,20.2511 63,26.5C 62.7216,27.4158 62.2216,28.0825 61.5,28.5 Z"/></g>
<g><path style="opacity:0.996" fill="#010101" d="M 98.5,8.5 C 98.5,9.83333 98.5,11.1667 98.5,12.5C 98.5,42.8333 98.5,73.1667 98.5,103.5C 137.5,103.5 176.5,103.5 215.5,103.5C 215.833,103.5 216.167,103.5 216.5,103.5C 218.493,72.1843 219.159,40.5176 218.5,8.5C 225.833,8.5 233.167,8.5 240.5,8.5C 240.5,80.1667 240.5,151.833 240.5,223.5C 233.167,223.5 225.833,223.5 218.5,223.5C 218.832,190.329 218.498,157.329 217.5,124.5C 177.833,124.5 138.167,124.5 98.5,124.5C 97.5017,157.329 97.1684,190.329 97.5,223.5C 90.1667,223.5 82.8333,223.5 75.5,223.5C 75.5,151.833 75.5,80.1667 75.5,8.5C 83.1667,8.5 90.8333,8.5 98.5,8.5 Z"/></g>
<g><path style="opacity:0.239" fill="#656565" d="M 98.5,8.5 C 90.8333,8.5 83.1667,8.5 75.5,8.5C 75.5,80.1667 75.5,151.833 75.5,223.5C 74.5008,151.669 74.1674,79.6686 74.5,7.5C 82.6841,7.17428 90.6841,7.50761 98.5,8.5 Z"/></g>
<g><path style="opacity:0.99" fill="#0e0e0e" d="M 151.5,32.5 C 151.973,33.9063 152.973,34.573 154.5,34.5C 156.833,36.1667 158.833,38.1667 160.5,40.5C 160.738,42.4044 161.738,43.7377 163.5,44.5C 165.984,46.8003 167.984,49.4669 169.5,52.5C 169.427,54.0269 170.094,55.0269 171.5,55.5C 173.341,57.8485 174.674,60.5152 175.5,63.5C 175.166,66.491 176.166,68.8243 178.5,70.5C 178.054,73.0101 178.72,75.0101 180.5,76.5C 180.42,79.7814 181.087,82.7814 182.5,85.5C 183.473,87.9479 183.806,90.6146 183.5,93.5C 175.5,93.5 167.5,93.5 159.5,93.5C 157.073,79.3186 151.407,66.652 142.5,55.5C 141.167,52.1667 138.833,49.8333 135.5,48.5C 128.225,43.2766 120.392,38.9433 112,35.5C 111.333,28.5 111.333,21.5 112,14.5C 112.414,14.0426 112.914,13.7093 113.5,13.5C 127.612,17.2229 140.279,23.5562 151.5,32.5 Z"/></g>
<g><path style="opacity:0.562" fill="#636363" d="M 217.5,8.5 C 217.833,8.5 218.167,8.5 218.5,8.5C 219.159,40.5176 218.493,72.1843 216.5,103.5C 216.175,71.76 216.508,40.0933 217.5,8.5 Z"/></g>
<g><path style="opacity:0.088" fill="#c7c7c7" d="M 98.5,12.5 C 99.4981,42.3287 99.8314,72.3287 99.5,102.5C 138.337,102.168 177.004,102.501 215.5,103.5C 176.5,103.5 137.5,103.5 98.5,103.5C 98.5,73.1667 98.5,42.8333 98.5,12.5 Z"/></g>
<g><path style="opacity:0.223" fill="#747474" d="M 217.5,8.5 C 225.316,7.50761 233.316,7.17428 241.5,7.5C 241.833,80.0019 241.499,152.335 240.5,224.5C 240.5,224.167 240.5,223.833 240.5,223.5C 240.5,151.833 240.5,80.1667 240.5,8.5C 233.167,8.5 225.833,8.5 218.5,8.5C 218.167,8.5 217.833,8.5 217.5,8.5 Z"/></g>
<g><path style="opacity:0.012" fill="#afafaf" d="M 151.5,32.5 C 153.027,32.427 154.027,33.0937 154.5,34.5C 152.973,34.573 151.973,33.9063 151.5,32.5 Z"/></g>
<g><path style="opacity:0.098" fill="#a4a4a4" d="M 61.5,28.5 C 51.6806,29.494 41.6806,29.8274 31.5,29.5C 30.8435,87.7155 31.5102,145.716 33.5,203.5C 32.5,203.5 31.5,203.5 30.5,203.5C 30.5,145.167 30.5,86.8333 30.5,28.5C 40.8333,28.5 51.1667,28.5 61.5,28.5 Z"/></g>
<g><path style="opacity:0.325" fill="#7b7b7b" d="M 160.5,40.5 C 162.262,41.2623 163.262,42.5956 163.5,44.5C 161.738,43.7377 160.738,42.4044 160.5,40.5 Z"/></g>
<g><path style="opacity:0.408" fill="#797979" d="M 135.5,48.5 C 138.833,49.8333 141.167,52.1667 142.5,55.5C 139.833,53.5 137.5,51.1667 135.5,48.5 Z"/></g>
<g><path style="opacity:0.141" fill="#7d7d7d" d="M 169.5,52.5 C 170.906,52.9731 171.573,53.9731 171.5,55.5C 170.094,55.0269 169.427,54.0269 169.5,52.5 Z"/></g>
<g><path style="opacity:0.765" fill="#525252" d="M 175.5,63.5 C 177.065,65.5093 178.065,67.8427 178.5,70.5C 176.166,68.8243 175.166,66.491 175.5,63.5 Z"/></g>
<g><path style="opacity:0.663" fill="#626262" d="M 178.5,70.5 C 179.738,72.2143 180.405,74.2143 180.5,76.5C 178.72,75.0101 178.054,73.0101 178.5,70.5 Z"/></g>
<g><path style="opacity:0.357" fill="#787878" d="M 180.5,76.5 C 181.913,79.2186 182.58,82.2186 182.5,85.5C 181.087,82.7814 180.42,79.7814 180.5,76.5 Z"/></g>
<g><path style="opacity:0.971" fill="#141414" d="M 454.5,93.5 C 455.665,136.998 455.831,180.665 455,224.5C 451.731,225.818 448.565,225.818 445.5,224.5C 445.666,217.159 445.5,209.826 445,202.5C 443.628,203.91 442.795,205.577 442.5,207.5C 442.672,208.492 442.338,209.158 441.5,209.5C 440.094,209.973 439.427,210.973 439.5,212.5C 426.755,227.438 411.422,230.605 393.5,222C 382.073,212.251 376.74,199.751 377.5,184.5C 377.43,179.027 378.097,173.694 379.5,168.5C 381.642,165.2 382.975,161.533 383.5,157.5C 384.263,155.632 385.263,153.965 386.5,152.5C 387.906,152.027 388.573,151.027 388.5,149.5C 392.014,144.314 396.68,140.648 402.5,138.5C 405.855,138.31 408.855,137.31 411.5,135.5C 411.833,135.5 412.167,135.5 412.5,135.5C 418.949,135.232 425.283,135.898 431.5,137.5C 435.892,138.359 439.225,140.693 441.5,144.5C 442.031,146.544 443.198,148.211 445,149.5C 445.5,130.836 445.667,112.17 445.5,93.5C 448.5,93.5 451.5,93.5 454.5,93.5 Z M 443.5,162.5 C 444.241,168.471 444.575,174.471 444.5,180.5C 443.322,190.04 439.989,198.706 434.5,206.5C 432.167,208.167 430.167,210.167 428.5,212.5C 417.315,218.408 406.649,217.741 396.5,210.5C 396.573,208.973 395.906,207.973 394.5,207.5C 394.573,205.973 393.906,204.973 392.5,204.5C 386.722,187.999 387.889,171.999 396,156.5C 405.607,145.14 417.44,141.973 431.5,147C 437.542,150.583 441.542,155.75 443.5,162.5 Z"/></g>
<g><path style="opacity:0.283" fill="#6b6b6b" d="M 454.5,93.5 C 451.5,93.5 448.5,93.5 445.5,93.5C 445.667,112.17 445.5,130.836 445,149.5C 443.198,148.211 442.031,146.544 441.5,144.5C 442.458,144.953 443.292,145.619 444,146.5C 444.5,128.503 444.667,110.503 444.5,92.5C 448.042,92.1872 451.375,92.5206 454.5,93.5 Z"/></g>
<g><path style="opacity:0.971" fill="#1f1f1f" d="M 651.5,113.5 C 648.833,113.5 646.167,113.5 643.5,113.5C 638.327,108.873 638.66,104.373 644.5,100C 652.667,98.8333 656.167,102.333 655,110.5C 654.578,112.426 653.411,113.426 651.5,113.5 Z"/></g>
<g><path style="opacity:0.255" fill="#5a5a5a" d="M 643.5,113.5 C 646.167,113.5 648.833,113.5 651.5,113.5C 648.956,115.714 646.289,115.714 643.5,113.5 Z"/></g>
<g><path style="opacity:0.514" fill="#2f2f2f" d="M 98.5,124.5 C 98.5,157.5 98.5,190.5 98.5,223.5C 98.189,224.478 97.5223,225.145 96.5,225.5C 89.3703,224.866 82.3703,224.199 75.5,223.5C 82.8333,223.5 90.1667,223.5 97.5,223.5C 97.1684,190.329 97.5017,157.329 98.5,124.5 Z"/></g>
<g><path style="opacity:0.553" fill="#343434" d="M 217.5,124.5 C 218.498,157.329 218.832,190.329 218.5,223.5C 225.833,223.5 233.167,223.5 240.5,223.5C 240.5,223.833 240.5,224.167 240.5,224.5C 232.93,224.804 225.264,224.804 217.5,224.5C 217.5,223.167 217.5,221.833 217.5,220.5C 217.5,188.5 217.5,156.5 217.5,124.5 Z"/></g>
<g><path style="opacity:0.061" fill="#a9a9a9" d="M 98.5,124.5 C 138.167,124.5 177.833,124.5 217.5,124.5C 217.5,156.5 217.5,188.5 217.5,220.5C 216.502,189.004 216.168,157.338 216.5,125.5C 177.5,125.5 138.5,125.5 99.5,125.5C 99.8316,158.338 99.4983,191.004 98.5,223.5C 98.5,190.5 98.5,157.5 98.5,124.5 Z"/></g>
<g><path style="opacity:0.982" fill="#0f0f0f" d="M 181.5,147.5 C 179.13,153.616 177.13,159.949 175.5,166.5C 173.841,171.827 171.174,176.493 167.5,180.5C 166.094,180.973 165.427,181.973 165.5,183.5C 165.5,184.167 165.167,184.5 164.5,184.5C 163.094,184.973 162.427,185.973 162.5,187.5C 161.118,189.549 159.452,191.215 157.5,192.5C 155.833,193.5 154.5,194.833 153.5,196.5C 142.073,207.881 128.406,215.047 112.5,218C 111.355,211.248 111.189,204.414 112,197.5C 119.849,193.622 127.349,189.288 134.5,184.5C 138.5,182.5 141.5,179.5 143.5,175.5C 144.026,173.77 145.026,172.436 146.5,171.5C 147.906,171.027 148.573,170.027 148.5,168.5C 149.659,164.849 151.326,161.515 153.5,158.5C 155.213,157.365 155.88,155.698 155.5,153.5C 157.067,146.796 159.067,140.296 161.5,134C 168.567,133.161 175.567,133.494 182.5,135C 183.848,139.365 183.514,143.532 181.5,147.5 Z"/></g>
<g><path style="opacity:0.167" fill="#9c9c9c" d="M 412.5,135.5 C 416.646,134.353 420.98,134.186 425.5,135C 427.852,135.24 429.852,136.073 431.5,137.5C 425.283,135.898 418.949,135.232 412.5,135.5 Z"/></g>
<g><path style="opacity:0.972" fill="#161616" d="M 340.5,144.5 C 341.031,146.544 342.198,148.211 344,149.5C 344.464,148.906 344.631,148.239 344.5,147.5C 344.5,147.167 344.5,146.833 344.5,146.5C 345.475,143.689 346.142,140.689 346.5,137.5C 348.833,137.5 351.167,137.5 353.5,137.5C 354.664,166.33 354.83,195.33 354,224.5C 350.606,225.456 347.106,225.789 343.5,225.5C 343.5,219.833 343.5,214.167 343.5,208.5C 342.884,203.659 341.884,203.992 340.5,209.5C 339.094,209.973 338.427,210.973 338.5,212.5C 328.029,225.377 314.696,229.544 298.5,225C 286.014,219.163 278.847,209.329 277,195.5C 274.795,181.307 276.961,167.974 283.5,155.5C 284.906,155.027 285.573,154.027 285.5,152.5C 286.906,152.027 287.573,151.027 287.5,149.5C 288.882,147.451 290.548,145.785 292.5,144.5C 294.749,143.92 296.415,142.587 297.5,140.5C 299.181,138.992 301.181,137.992 303.5,137.5C 306.152,137.59 308.485,136.924 310.5,135.5C 322.314,132.723 332.314,135.723 340.5,144.5 Z M 341.5,159.5 C 341.802,162.373 342.469,165.039 343.5,167.5C 343.546,174.191 343.212,180.857 342.5,187.5C 341.076,189.515 340.41,191.848 340.5,194.5C 338.983,197.035 337.65,199.702 336.5,202.5C 335.094,202.973 334.427,203.973 334.5,205.5C 332.167,207.167 330.167,209.167 328.5,211.5C 326.973,211.427 325.973,212.094 325.5,213.5C 309.788,220.598 298.121,216.598 290.5,201.5C 289.401,197.07 288.401,192.736 287.5,188.5C 285.744,172.641 290.744,159.475 302.5,149C 319.091,140.264 332.091,143.764 341.5,159.5 Z"/></g>
<g><path style="opacity:0.978" fill="#111111" d="M 608.5,143.5 C 608.427,145.027 609.094,146.027 610.5,146.5C 613,149.66 614.333,153.327 614.5,157.5C 614.5,179.833 614.5,202.167 614.5,224.5C 613.207,225.158 611.707,225.492 610,225.5C 608.019,225.371 606.353,224.704 605,223.5C 605.166,204.509 605.333,185.509 605.5,166.5C 605.841,162.84 605.175,159.507 603.5,156.5C 597.543,145.32 588.543,142.153 576.5,147C 572.667,149.5 569.5,152.667 567,156.5C 563.282,162.92 560.449,169.586 558.5,176.5C 556.864,180.21 556.198,184.21 556.5,188.5C 554.298,200.253 553.298,212.253 553.5,224.5C 550.435,225.818 547.269,225.818 544,224.5C 543.667,203.833 543.333,183.167 543,162.5C 539.31,145.572 529.477,140.739 513.5,148C 503.218,157.989 497.218,170.156 495.5,184.5C 494.105,188.591 493.272,192.924 493,197.5C 492.5,206.16 492.334,214.827 492.5,223.5C 491.486,224.765 489.986,225.431 488,225.5C 486.293,225.492 484.793,225.158 483.5,224.5C 483.5,195.5 483.5,166.5 483.5,137.5C 486.5,137.5 489.5,137.5 492.5,137.5C 492.5,142.167 492.5,146.833 492.5,151.5C 491.184,157.013 491.184,162.68 492.5,168.5C 493.386,167.675 493.719,166.675 493.5,165.5C 493.433,164.041 493.766,162.708 494.5,161.5C 495.264,158.982 496.264,156.649 497.5,154.5C 498.906,154.027 499.573,153.027 499.5,151.5C 500.906,151.027 501.573,150.027 501.5,148.5C 504.5,146.167 507.167,143.5 509.5,140.5C 510.899,139.11 512.566,138.11 514.5,137.5C 520.711,135.899 527.044,135.232 533.5,135.5C 533.833,135.5 534.167,135.5 534.5,135.5C 535.78,136.931 537.447,137.598 539.5,137.5C 540.492,137.328 541.158,137.662 541.5,138.5C 541.973,139.906 542.973,140.573 544.5,140.5C 545.08,142.749 546.413,144.415 548.5,145.5C 548.427,147.027 549.094,148.027 550.5,148.5C 550.723,152.162 551.723,155.495 553.5,158.5C 553.5,158.833 553.5,159.167 553.5,159.5C 553.338,161.527 553.505,163.527 554,165.5C 554.791,164.255 555.291,162.922 555.5,161.5C 556.042,158.088 557.375,155.088 559.5,152.5C 561.262,151.738 562.262,150.404 562.5,148.5C 565.167,146.5 567.5,144.167 569.5,141.5C 571.404,141.262 572.738,140.262 573.5,138.5C 576.855,138.31 579.855,137.31 582.5,135.5C 590.205,133.594 597.538,134.761 604.5,139C 606.041,140.371 607.375,141.871 608.5,143.5 Z"/></g>
<g><path style="opacity:0.977" fill="#141414" d="M 732.5,135.5 C 734.214,136.738 736.214,137.405 738.5,137.5C 741.764,139.094 744.431,141.427 746.5,144.5C 746.427,146.027 747.094,147.027 748.5,147.5C 750.865,151.424 752.365,155.757 753,160.5C 753.826,182.073 753.66,203.573 752.5,225C 749.24,225.784 746.073,225.617 743,224.5C 742.667,203.833 742.333,183.167 742,162.5C 740.891,151.271 734.724,145.271 723.5,144.5C 713.953,145.523 706.786,150.19 702,158.5C 698.441,166.023 695.607,173.689 693.5,181.5C 691.896,185.9 691.229,190.566 691.5,195.5C 691.532,205.365 690.865,215.031 689.5,224.5C 686.833,224.5 684.167,224.5 681.5,224.5C 681.5,195.5 681.5,166.5 681.5,137.5C 684.167,137.5 686.833,137.5 689.5,137.5C 689.5,144.5 689.5,151.5 689.5,158.5C 689.335,162.182 689.501,165.848 690,169.5C 690.44,167.134 690.94,164.801 691.5,162.5C 692.992,158.182 694.992,154.182 697.5,150.5C 699.262,149.738 700.262,148.404 700.5,146.5C 700.833,145.5 701.5,144.833 702.5,144.5C 704.749,143.92 706.415,142.587 707.5,140.5C 709.027,140.573 710.027,139.906 710.5,138.5C 713.647,138.263 716.647,137.43 719.5,136C 723.821,135.501 728.154,135.334 732.5,135.5 Z"/></g>
<g><path style="opacity:0.004" fill="#aeaeae" d="M 732.5,135.5 C 734.898,135.259 736.898,135.926 738.5,137.5C 736.214,137.405 734.214,136.738 732.5,135.5 Z"/></g>
<g><path style="opacity:0.518" fill="#717171" d="M 310.5,135.5 C 308.485,136.924 306.152,137.59 303.5,137.5C 305.515,136.076 307.848,135.41 310.5,135.5 Z"/></g>
<g><path style="opacity:0.333" fill="#747474" d="M 353.5,137.5 C 351.167,137.5 348.833,137.5 346.5,137.5C 346.142,140.689 345.475,143.689 344.5,146.5C 344.46,143.119 344.793,139.786 345.5,136.5C 347.401,136.567 349.234,136.233 351,135.5C 352.301,135.639 353.134,136.305 353.5,137.5 Z"/></g>
<g><path style="opacity:0.396" fill="#6e6e6e" d="M 411.5,135.5 C 408.855,137.31 405.855,138.31 402.5,138.5C 405.084,136.528 408.084,135.528 411.5,135.5 Z"/></g>
<g><path style="opacity:0.443" fill="#808080" d="M 533.5,135.5 C 527.044,135.232 520.711,135.899 514.5,137.5C 520.609,134.492 526.942,133.826 533.5,135.5 Z"/></g>
<g><path style="opacity:0.176" fill="#959595" d="M 534.5,135.5 C 536.553,135.402 538.22,136.069 539.5,137.5C 537.447,137.598 535.78,136.931 534.5,135.5 Z"/></g>
<g><path style="opacity:0.404" fill="#6d6d6d" d="M 582.5,135.5 C 579.855,137.31 576.855,138.31 573.5,138.5C 576.084,136.528 579.084,135.528 582.5,135.5 Z"/></g>
<g><path style="opacity:0.576" fill="#787878" d="M 732.5,135.5 C 728.154,135.334 723.821,135.501 719.5,136C 716.647,137.43 713.647,138.263 710.5,138.5C 712.858,136.871 715.524,135.705 718.5,135C 723.352,134.185 728.019,134.352 732.5,135.5 Z"/></g>
<g><path style="opacity:0.008" fill="#b9b9b9" d="M 541.5,138.5 C 543.027,138.427 544.027,139.094 544.5,140.5C 542.973,140.573 541.973,139.906 541.5,138.5 Z"/></g>
<g><path style="opacity:0.418" fill="#3d3d3d" d="M 492.5,137.5 C 489.5,137.5 486.5,137.5 483.5,137.5C 483.5,166.5 483.5,195.5 483.5,224.5C 482.17,195.331 482.17,165.997 483.5,136.5C 486.764,135.158 489.764,135.492 492.5,137.5 Z"/></g>
<g><path style="opacity:0.096" fill="#9c9c9c" d="M 492.5,137.5 C 493.167,145.5 493.833,153.5 494.5,161.5C 493.766,162.708 493.433,164.041 493.5,165.5C 492.514,161.03 492.181,156.363 492.5,151.5C 492.5,146.833 492.5,142.167 492.5,137.5 Z"/></g>
<g><path style="opacity:0.224" fill="#8b8b8b" d="M 573.5,138.5 C 572.738,140.262 571.404,141.262 569.5,141.5C 570.262,139.738 571.596,138.738 573.5,138.5 Z"/></g>
<g><path style="opacity:0.396" fill="#6f6f6f" d="M 710.5,138.5 C 710.027,139.906 709.027,140.573 707.5,140.5C 707.973,139.094 708.973,138.427 710.5,138.5 Z"/></g>
<g><path style="opacity:0.365" fill="#868686" d="M 544.5,140.5 C 546.587,141.585 547.92,143.251 548.5,145.5C 546.413,144.415 545.08,142.749 544.5,140.5 Z"/></g>
<g><path style="opacity:0.558" fill="#5b5b5b" d="M 651.5,137.5 C 652.268,138.263 652.768,139.263 653,140.5C 653.791,168.853 653.625,197.186 652.5,225.5C 649.167,225.5 645.833,225.5 642.5,225.5C 641.456,197.509 641.289,169.509 642,141.5C 642.129,138.997 643.129,136.997 645,135.5C 647.277,136.117 649.444,136.784 651.5,137.5 Z"/></g>
<g><path style="opacity:0.988" fill="#000000" d="M 651.5,137.5 C 651.5,166.5 651.5,195.5 651.5,224.5C 648.833,224.5 646.167,224.5 643.5,224.5C 643.5,195.5 643.5,166.5 643.5,137.5C 646.167,137.5 648.833,137.5 651.5,137.5 Z"/></g>
<g><path style="opacity:0.691" fill="#5c5c5c" d="M 690.5,158.5 C 690.167,158.5 689.833,158.5 689.5,158.5C 689.5,151.5 689.5,144.5 689.5,137.5C 686.833,137.5 684.167,137.5 681.5,137.5C 681.5,166.5 681.5,195.5 681.5,224.5C 684.167,224.5 686.833,224.5 689.5,224.5C 688.207,225.158 686.707,225.492 685,225.5C 683.019,225.371 681.353,224.704 680,223.5C 679.167,194.494 679.333,165.494 680.5,136.5C 684.19,135.004 687.69,135.337 691,137.5C 691.821,144.679 691.655,151.679 690.5,158.5 Z"/></g>
<g><path style="opacity:0.643" fill="#565656" d="M 297.5,140.5 C 296.415,142.587 294.749,143.92 292.5,144.5C 293.585,142.413 295.251,141.08 297.5,140.5 Z"/></g>
<g><path style="opacity:0.451" fill="#777777" d="M 509.5,140.5 C 507.167,143.5 504.5,146.167 501.5,148.5C 503.167,144.833 505.833,142.167 509.5,140.5 Z"/></g>
<g><path style="opacity:0.631" fill="#5b5b5b" d="M 707.5,140.5 C 706.415,142.587 704.749,143.92 702.5,144.5C 703.585,142.413 705.251,141.08 707.5,140.5 Z"/></g>
<g><path style="opacity:0.31" fill="#818181" d="M 569.5,141.5 C 567.5,144.167 565.167,146.5 562.5,148.5C 563.833,145.167 566.167,142.833 569.5,141.5 Z"/></g>
<g><path style="opacity:0.145" fill="#7d7d7d" d="M 608.5,143.5 C 609.906,143.973 610.573,144.973 610.5,146.5C 609.094,146.027 608.427,145.027 608.5,143.5 Z"/></g>
<g><path style="opacity:0.137" fill="#797979" d="M 746.5,144.5 C 747.906,144.973 748.573,145.973 748.5,147.5C 747.094,147.027 746.427,146.027 746.5,144.5 Z"/></g>
<g><path style="opacity:0.125" fill="#9e9e9e" d="M 548.5,145.5 C 549.906,145.973 550.573,146.973 550.5,148.5C 549.094,148.027 548.427,147.027 548.5,145.5 Z"/></g>
<g><path style="opacity:0.439" fill="#8a8a8a" d="M 700.5,146.5 C 700.262,148.404 699.262,149.738 697.5,150.5C 697.738,148.596 698.738,147.262 700.5,146.5 Z"/></g>
<g><path style="opacity:0.11" fill="#848484" d="M 340.5,144.5 C 341.833,145.5 343.167,146.5 344.5,147.5C 344.631,148.239 344.464,148.906 344,149.5C 342.198,148.211 341.031,146.544 340.5,144.5 Z"/></g>
<g><path style="opacity:0.067" fill="#797979" d="M 181.5,147.5 C 180.679,154.293 178.679,160.626 175.5,166.5C 177.13,159.949 179.13,153.616 181.5,147.5 Z"/></g>
<g><path style="opacity:0.294" fill="#828282" d="M 287.5,149.5 C 287.573,151.027 286.906,152.027 285.5,152.5C 285.427,150.973 286.094,149.973 287.5,149.5 Z"/></g>
<g><path style="opacity:0.196" fill="#707070" d="M 501.5,148.5 C 501.573,150.027 500.906,151.027 499.5,151.5C 499.427,149.973 500.094,148.973 501.5,148.5 Z"/></g>
<g><path style="opacity:0.243" fill="#838383" d="M 562.5,148.5 C 562.262,150.404 561.262,151.738 559.5,152.5C 559.738,150.596 560.738,149.262 562.5,148.5 Z"/></g>
<g><path style="opacity:0.118" fill="#9d9d9d" d="M 388.5,149.5 C 388.573,151.027 387.906,152.027 386.5,152.5C 386.427,150.973 387.094,149.973 388.5,149.5 Z"/></g>
<g><path style="opacity:0.447" fill="#747474" d="M 550.5,148.5 C 552.277,151.505 553.277,154.838 553.5,158.5C 551.723,155.495 550.723,152.162 550.5,148.5 Z"/></g>
<g><path style="opacity:0.125" fill="#919191" d="M 499.5,151.5 C 499.573,153.027 498.906,154.027 497.5,154.5C 497.427,152.973 498.094,151.973 499.5,151.5 Z"/></g>
<g><path style="opacity:0.137" fill="#828282" d="M 285.5,152.5 C 285.573,154.027 284.906,155.027 283.5,155.5C 283.427,153.973 284.094,152.973 285.5,152.5 Z"/></g>
<g><path style="opacity:0.46" fill="#3a3a3a" d="M 492.5,151.5 C 492.181,156.363 492.514,161.03 493.5,165.5C 493.719,166.675 493.386,167.675 492.5,168.5C 491.184,162.68 491.184,157.013 492.5,151.5 Z"/></g>
<g><path style="opacity:0.498" fill="#7a7a7a" d="M 155.5,153.5 C 155.88,155.698 155.213,157.365 153.5,158.5C 153.796,156.597 154.463,154.93 155.5,153.5 Z"/></g>
<g><path style="opacity:0.643" fill="#6e6e6e" d="M 383.5,157.5 C 382.975,161.533 381.642,165.2 379.5,168.5C 380.065,164.463 381.399,160.797 383.5,157.5 Z"/></g>
<g><path style="opacity:0.08" fill="#929292" d="M 553.5,159.5 C 554.167,160.167 554.833,160.833 555.5,161.5C 555.291,162.922 554.791,164.255 554,165.5C 553.505,163.527 553.338,161.527 553.5,159.5 Z"/></g>
<g><path style="opacity:0.404" fill="#656565" d="M 341.5,159.5 C 343.223,161.78 343.889,164.447 343.5,167.5C 342.469,165.039 341.802,162.373 341.5,159.5 Z"/></g>
<g><path style="opacity:0.11" fill="#9d9d9d" d="M 603.5,156.5 C 605.175,159.507 605.841,162.84 605.5,166.5C 604.419,163.373 603.753,160.04 603.5,156.5 Z"/></g>
<g><path style="opacity:0.145" fill="#898989" d="M 689.5,158.5 C 689.833,158.5 690.167,158.5 690.5,158.5C 690.232,160.099 690.566,161.432 691.5,162.5C 690.94,164.801 690.44,167.134 690,169.5C 689.501,165.848 689.335,162.182 689.5,158.5 Z"/></g>
<g><path style="opacity:0.18" fill="#787878" d="M 443.5,162.5 C 444.97,165.886 445.637,169.553 445.5,173.5C 445.497,176.025 445.163,178.359 444.5,180.5C 444.575,174.471 444.241,168.471 443.5,162.5 Z"/></g>
<g><path style="opacity:0.125" fill="#888888" d="M 148.5,168.5 C 148.573,170.027 147.906,171.027 146.5,171.5C 146.427,169.973 147.094,168.973 148.5,168.5 Z"/></g>
<g><path style="opacity:0.439" fill="#424242" d="M 143.5,175.5 C 141.5,179.5 138.5,182.5 134.5,184.5C 137.167,181.167 140.167,178.167 143.5,175.5 Z"/></g>
<g><path style="opacity:0.418" fill="#494949" d="M 614.5,157.5 C 616.027,165.107 616.693,172.94 616.5,181C 616.236,195.677 615.569,210.177 614.5,224.5C 614.5,202.167 614.5,179.833 614.5,157.5 Z"/></g>
<g><path style="opacity:0.008" fill="#848484" d="M 167.5,180.5 C 167.573,182.027 166.906,183.027 165.5,183.5C 165.427,181.973 166.094,180.973 167.5,180.5 Z"/></g>
<g><path style="opacity:0.145" fill="#6b6b6b" d="M 558.5,176.5 C 558.283,180.705 557.617,184.705 556.5,188.5C 556.198,184.21 556.864,180.21 558.5,176.5 Z"/></g>
<g><path style="opacity:0.02" fill="#808080" d="M 164.5,184.5 C 164.573,186.027 163.906,187.027 162.5,187.5C 162.427,185.973 163.094,184.973 164.5,184.5 Z"/></g>
<g><path style="opacity:0.173" fill="#686868" d="M 693.5,181.5 C 693.31,186.37 692.644,191.036 691.5,195.5C 691.229,190.566 691.896,185.9 693.5,181.5 Z"/></g>
<g><path style="opacity:0.357" fill="#707070" d="M 342.5,187.5 C 342.59,190.152 341.924,192.485 340.5,194.5C 340.41,191.848 341.076,189.515 342.5,187.5 Z"/></g>
<g><path style="opacity:0.004" fill="#8b8b8b" d="M 157.5,192.5 C 157.167,194.833 155.833,196.167 153.5,196.5C 154.5,194.833 155.833,193.5 157.5,192.5 Z"/></g>
<g><path style="opacity:0.337" fill="#6b6b6b" d="M 287.5,188.5 C 288.401,192.736 289.401,197.07 290.5,201.5C 288.933,200.319 288.099,198.653 288,196.5C 287.503,193.854 287.336,191.187 287.5,188.5 Z"/></g>
<g><path style="opacity:0.118" fill="#7b7b7b" d="M 556.5,188.5 C 555.87,200.679 554.87,212.679 553.5,224.5C 553.298,212.253 554.298,200.253 556.5,188.5 Z"/></g>
<g><path style="opacity:0.169" fill="#818181" d="M 336.5,202.5 C 336.573,204.027 335.906,205.027 334.5,205.5C 334.427,203.973 335.094,202.973 336.5,202.5 Z"/></g>
<g><path style="opacity:0.145" fill="#727272" d="M 392.5,204.5 C 393.906,204.973 394.573,205.973 394.5,207.5C 393.094,207.027 392.427,206.027 392.5,204.5 Z"/></g>
<g><path style="opacity:0.082" fill="#797979" d="M 445.5,224.5 C 444.672,218.681 444.172,212.681 444,206.5C 443.617,207.056 443.117,207.389 442.5,207.5C 442.795,205.577 443.628,203.91 445,202.5C 445.5,209.826 445.666,217.159 445.5,224.5 Z"/></g>
<g><path style="opacity:0.004" fill="#a1a1a1" d="M 343.5,208.5 C 342.391,208.557 341.391,208.89 340.5,209.5C 341.884,203.992 342.884,203.659 343.5,208.5 Z"/></g>
<g><path style="opacity:0.255" fill="#747474" d="M 394.5,207.5 C 395.906,207.973 396.573,208.973 396.5,210.5C 395.094,210.027 394.427,209.027 394.5,207.5 Z"/></g>
<g><path style="opacity:0.059" fill="#8e8e8e" d="M 340.5,209.5 C 340.573,211.027 339.906,212.027 338.5,212.5C 338.427,210.973 339.094,209.973 340.5,209.5 Z"/></g>
<g><path style="opacity:0.533" fill="#515151" d="M 434.5,206.5 C 433.5,209.5 431.5,211.5 428.5,212.5C 430.167,210.167 432.167,208.167 434.5,206.5 Z"/></g>
<g><path style="opacity:0.051" fill="#868686" d="M 441.5,209.5 C 441.573,211.027 440.906,212.027 439.5,212.5C 439.427,210.973 440.094,209.973 441.5,209.5 Z"/></g>
<g><path style="opacity:0.329" fill="#747474" d="M 328.5,211.5 C 328.027,212.906 327.027,213.573 325.5,213.5C 325.973,212.094 326.973,211.427 328.5,211.5 Z"/></g>
<g><path style="opacity:0.033" fill="#818181" d="M 495.5,184.5 C 494.25,197.629 493.25,210.629 492.5,223.5C 492.334,214.827 492.5,206.16 493,197.5C 493.272,192.924 494.105,188.591 495.5,184.5 Z"/></g>
<g><path style="opacity:0.398" fill="#2e2e2e" d="M 7.5,223.5 C 25.8333,223.5 44.1667,223.5 62.5,223.5C 62.1344,224.695 61.301,225.361 60,225.5C 42.3598,224.853 24.8598,224.186 7.5,223.5 Z"/></g>
</svg>
